<?xml version="1.0" encoding="UTF-8" standalone="no"?>
<!DOCTYPE svg PUBLIC "-//W3C//DTD SVG 1.1//EN"
 "http://www.w3.org/Graphics/SVG/1.1/DTD/svg11.dtd">
<!-- Generated by graphviz version 2.38.0 (20140413.2041)
 -->
<!-- Title: G Pages: 1 -->
<svg width="437pt" height="332pt"
 viewBox="0.00 0.00 437.04 332.00" xmlns="http://www.w3.org/2000/svg" xmlns:xlink="http://www.w3.org/1999/xlink">
<g id="graph0" class="graph" transform="scale(1 1) rotate(0) translate(4 328)">
<title>G</title>
<polygon fill="white" stroke="none" points="-4,4 -4,-328 433.037,-328 433.037,4 -4,4"/>
<!-- load_data_0 -->
<g id="node1" class="node"><title>load_data_0</title>
<ellipse fill="none" stroke="black" cx="171.544" cy="-306" rx="55.7903" ry="18"/>
<text text-anchor="middle" x="171.544" y="-302.3" font-family="Times New Roman,serif" font-size="14.00">load_data_0</text>
</g>
<!-- fft_1 -->
<g id="node2" class="node"><title>fft_1</title>
<ellipse fill="none" stroke="black" cx="69.5438" cy="-234" rx="28.6953" ry="18"/>
<text text-anchor="middle" x="69.5438" y="-230.3" font-family="Times New Roman,serif" font-size="14.00">fft_1</text>
</g>
<!-- load_data_0&#45;&gt;fft_1 -->
<g id="edge1" class="edge"><title>load_data_0&#45;&gt;fft_1</title>
<path fill="none" stroke="black" d="M148.907,-289.465C133.555,-278.929 113.176,-264.944 96.9134,-253.783"/>
<polygon fill="black" stroke="black" points="98.5855,-250.686 88.3599,-247.913 94.6246,-256.457 98.5855,-250.686"/>
</g>
<!-- thumbnail_2 -->
<g id="node3" class="node"><title>thumbnail_2</title>
<ellipse fill="none" stroke="black" cx="171.544" cy="-234" rx="55.4913" ry="18"/>
<text text-anchor="middle" x="171.544" y="-230.3" font-family="Times New Roman,serif" font-size="14.00">thumbnail_2</text>
</g>
<!-- load_data_0&#45;&gt;thumbnail_2 -->
<g id="edge2" class="edge"><title>load_data_0&#45;&gt;thumbnail_2</title>
<path fill="none" stroke="black" d="M171.544,-287.697C171.544,-279.983 171.544,-270.712 171.544,-262.112"/>
<polygon fill="black" stroke="black" points="175.044,-262.104 171.544,-252.104 168.044,-262.104 175.044,-262.104"/>
</g>
<!-- butter_4 -->
<g id="node5" class="node"><title>butter_4</title>
<ellipse fill="none" stroke="black" cx="285.544" cy="-234" rx="40.8928" ry="18"/>
<text text-anchor="middle" x="285.544" y="-230.3" font-family="Times New Roman,serif" font-size="14.00">butter_4</text>
</g>
<!-- load_data_0&#45;&gt;butter_4 -->
<g id="edge4" class="edge"><title>load_data_0&#45;&gt;butter_4</title>
<path fill="none" stroke="black" d="M196.28,-289.811C213.276,-279.375 235.977,-265.436 254.233,-254.226"/>
<polygon fill="black" stroke="black" points="256.103,-257.185 262.793,-248.97 252.44,-251.22 256.103,-257.185"/>
</g>
<!-- rms_from_fft_3 -->
<g id="node4" class="node"><title>rms_from_fft_3</title>
<ellipse fill="none" stroke="black" cx="69.5438" cy="-90" rx="69.5877" ry="18"/>
<text text-anchor="middle" x="69.5438" y="-86.3" font-family="Times New Roman,serif" font-size="14.00">rms_from_fft_3</text>
</g>
<!-- fft_1&#45;&gt;rms_from_fft_3 -->
<g id="edge3" class="edge"><title>fft_1&#45;&gt;rms_from_fft_3</title>
<path fill="none" stroke="black" d="M69.5438,-215.871C69.5438,-191.67 69.5438,-147.211 69.5438,-118.393"/>
<polygon fill="black" stroke="black" points="73.0439,-118.189 69.5438,-108.189 66.0439,-118.189 73.0439,-118.189"/>
</g>
<!-- write_witsml_9 -->
<g id="node10" class="node"><title>write_witsml_9</title>
<ellipse fill="none" stroke="black" cx="213.544" cy="-18" rx="65.7887" ry="18"/>
<text text-anchor="middle" x="213.544" y="-14.3" font-family="Times New Roman,serif" font-size="14.00">write_witsml_9</text>
</g>
<!-- rms_from_fft_3&#45;&gt;write_witsml_9 -->
<g id="edge10" class="edge"><title>rms_from_fft_3&#45;&gt;write_witsml_9</title>
<path fill="none" stroke="black" d="M100.79,-73.811C122.164,-63.4208 150.683,-49.5574 173.691,-38.3731"/>
<polygon fill="black" stroke="black" points="175.39,-41.4386 182.854,-33.9188 172.33,-35.143 175.39,-41.4386"/>
</g>
<!-- thumbnail_5 -->
<g id="node6" class="node"><title>thumbnail_5</title>
<ellipse fill="none" stroke="black" cx="204.544" cy="-162" rx="55.4913" ry="18"/>
<text text-anchor="middle" x="204.544" y="-158.3" font-family="Times New Roman,serif" font-size="14.00">thumbnail_5</text>
</g>
<!-- butter_4&#45;&gt;thumbnail_5 -->
<g id="edge5" class="edge"><title>butter_4&#45;&gt;thumbnail_5</title>
<path fill="none" stroke="black" d="M267.567,-217.465C256.709,-208.081 242.684,-195.96 230.622,-185.536"/>
<polygon fill="black" stroke="black" points="232.886,-182.868 223.032,-178.977 228.309,-188.164 232.886,-182.868"/>
</g>
<!-- sta_lta_6 -->
<g id="node7" class="node"><title>sta_lta_6</title>
<ellipse fill="none" stroke="black" cx="321.544" cy="-162" rx="43.5923" ry="18"/>
<text text-anchor="middle" x="321.544" y="-158.3" font-family="Times New Roman,serif" font-size="14.00">sta_lta_6</text>
</g>
<!-- butter_4&#45;&gt;sta_lta_6 -->
<g id="edge6" class="edge"><title>butter_4&#45;&gt;sta_lta_6</title>
<path fill="none" stroke="black" d="M294.258,-216.055C298.459,-207.887 303.589,-197.912 308.263,-188.824"/>
<polygon fill="black" stroke="black" points="311.448,-190.283 312.909,-179.789 305.223,-187.081 311.448,-190.283"/>
</g>
<!-- thumbnail_7 -->
<g id="node8" class="node"><title>thumbnail_7</title>
<ellipse fill="none" stroke="black" cx="212.544" cy="-90" rx="55.4913" ry="18"/>
<text text-anchor="middle" x="212.544" y="-86.3" font-family="Times New Roman,serif" font-size="14.00">thumbnail_7</text>
</g>
<!-- sta_lta_6&#45;&gt;thumbnail_7 -->
<g id="edge7" class="edge"><title>sta_lta_6&#45;&gt;thumbnail_7</title>
<path fill="none" stroke="black" d="M298.959,-146.496C283.454,-136.538 262.627,-123.163 245.304,-112.039"/>
<polygon fill="black" stroke="black" points="246.918,-108.915 236.612,-106.457 243.135,-114.805 246.918,-108.915"/>
</g>
<!-- peak_to_peak_8 -->
<g id="node9" class="node"><title>peak_to_peak_8</title>
<ellipse fill="none" stroke="black" cx="357.544" cy="-90" rx="71.4873" ry="18"/>
<text text-anchor="middle" x="357.544" y="-86.3" font-family="Times New Roman,serif" font-size="14.00">peak_to_peak_8</text>
</g>
<!-- sta_lta_6&#45;&gt;peak_to_peak_8 -->
<g id="edge8" class="edge"><title>sta_lta_6&#45;&gt;peak_to_peak_8</title>
<path fill="none" stroke="black" d="M330.258,-144.055C334.398,-136.007 339.439,-126.205 344.056,-117.226"/>
<polygon fill="black" stroke="black" points="347.198,-118.769 348.659,-108.275 340.973,-115.567 347.198,-118.769"/>
</g>
<!-- peak_to_peak_8&#45;&gt;write_witsml_9 -->
<g id="edge9" class="edge"><title>peak_to_peak_8&#45;&gt;write_witsml_9</title>
<path fill="none" stroke="black" d="M325.942,-73.6382C304.695,-63.3096 276.508,-49.6074 253.676,-38.5088"/>
<polygon fill="black" stroke="black" points="255.1,-35.3095 244.576,-34.0853 252.04,-41.6051 255.1,-35.3095"/>
</g>
</g>
</svg>
