<?xml version="1.0" encoding="UTF-8" standalone="no"?>
<!DOCTYPE svg PUBLIC "-//W3C//DTD SVG 1.1//EN"
 "http://www.w3.org/Graphics/SVG/1.1/DTD/svg11.dtd">
<!-- Generated by graphviz version 2.38.0 (20140413.2041)
 -->
<!-- Title: G Pages: 1 -->
<svg width="2296pt" height="260pt"
 viewBox="0.00 0.00 2295.79 260.00" xmlns="http://www.w3.org/2000/svg" xmlns:xlink="http://www.w3.org/1999/xlink">
<g id="graph0" class="graph" transform="scale(1 1) rotate(0) translate(4 256)">
<title>G</title>
<polygon fill="white" stroke="none" points="-4,4 -4,-256 2291.79,-256 2291.79,4 -4,4"/>
<!-- datastore -->
<g id="node1" class="node"><title>datastore</title>
<ellipse fill="none" stroke="black" cx="1280.39" cy="-234" rx="44.393" ry="18"/>
<text text-anchor="middle" x="1280.39" y="-230.3" font-family="Times New Roman,serif" font-size="14.00">datastore</text>
</g>
<!-- data_chunk_1 -->
<g id="node2" class="node"><title>data_chunk_1</title>
<ellipse fill="none" stroke="black" cx="1210.39" cy="-162" rx="61.99" ry="18"/>
<text text-anchor="middle" x="1210.39" y="-158.3" font-family="Times New Roman,serif" font-size="14.00">data_chunk_1</text>
</g>
<!-- datastore&#45;&gt;data_chunk_1 -->
<g id="edge1" class="edge"><title>datastore&#45;&gt;data_chunk_1</title>
<path fill="none" stroke="black" d="M1264.51,-217.116C1255.64,-208.244 1244.4,-197.009 1234.47,-187.077"/>
<polygon fill="black" stroke="black" points="1236.74,-184.394 1227.19,-179.797 1231.79,-189.343 1236.74,-184.394"/>
</g>
<!-- data_chunk_2 -->
<g id="node3" class="node"><title>data_chunk_2</title>
<ellipse fill="none" stroke="black" cx="1351.39" cy="-162" rx="61.99" ry="18"/>
<text text-anchor="middle" x="1351.39" y="-158.3" font-family="Times New Roman,serif" font-size="14.00">data_chunk_2</text>
</g>
<!-- datastore&#45;&gt;data_chunk_2 -->
<g id="edge2" class="edge"><title>datastore&#45;&gt;data_chunk_2</title>
<path fill="none" stroke="black" d="M1296.51,-217.116C1305.5,-208.244 1316.9,-197.009 1326.97,-187.077"/>
<polygon fill="black" stroke="black" points="1329.69,-189.31 1334.36,-179.797 1324.78,-184.326 1329.69,-189.31"/>
</g>
<!-- data_chunk_3 -->
<g id="node4" class="node"><title>data_chunk_3</title>
<ellipse fill="none" stroke="black" cx="1506.39" cy="-162" rx="61.99" ry="18"/>
<text text-anchor="middle" x="1506.39" y="-158.3" font-family="Times New Roman,serif" font-size="14.00">data_chunk_3</text>
</g>
<!-- datastore&#45;&gt;data_chunk_3 -->
<g id="edge3" class="edge"><title>datastore&#45;&gt;data_chunk_3</title>
<path fill="none" stroke="black" d="M1314.72,-222.369C1352.29,-210.73 1412.91,-191.955 1455.91,-178.638"/>
<polygon fill="black" stroke="black" points="1457.1,-181.933 1465.61,-175.631 1455.03,-175.246 1457.1,-181.933"/>
</g>
<!-- data_chunk_n -->
<g id="node5" class="node"><title>data_chunk_n</title>
<ellipse fill="none" stroke="black" cx="1065.39" cy="-162" rx="61.99" ry="18"/>
<text text-anchor="middle" x="1065.39" y="-158.3" font-family="Times New Roman,serif" font-size="14.00">data_chunk_n</text>
</g>
<!-- datastore&#45;&gt;data_chunk_n -->
<g id="edge4" class="edge"><title>datastore&#45;&gt;data_chunk_n</title>
<path fill="none" stroke="black" d="M1246.8,-222.063C1211.34,-210.517 1155.09,-192.202 1114.62,-179.027"/>
<polygon fill="black" stroke="black" points="1115.55,-175.648 1104.95,-175.88 1113.38,-182.304 1115.55,-175.648"/>
</g>
<!-- summary_1_1 -->
<g id="node6" class="node"><title>summary_1_1</title>
<ellipse fill="none" stroke="black" cx="1792.39" cy="-90" rx="62.2891" ry="18"/>
<text text-anchor="middle" x="1792.39" y="-86.3" font-family="Times New Roman,serif" font-size="14.00">summary_1_1</text>
</g>
<!-- data_chunk_1&#45;&gt;summary_1_1 -->
<g id="edge5" class="edge"><title>data_chunk_1&#45;&gt;summary_1_1</title>
<path fill="none" stroke="black" d="M1254.24,-149.239C1262.86,-147.243 1271.88,-145.374 1280.39,-144 1474.1,-112.752 1526.59,-138.63 1720.39,-108 1726.08,-107.101 1731.99,-105.995 1737.86,-104.783"/>
<polygon fill="black" stroke="black" points="1738.63,-108.197 1747.66,-102.659 1737.15,-101.355 1738.63,-108.197"/>
</g>
<!-- summary_1_2 -->
<g id="node7" class="node"><title>summary_1_2</title>
<ellipse fill="none" stroke="black" cx="205.394" cy="-90" rx="62.2891" ry="18"/>
<text text-anchor="middle" x="205.394" y="-86.3" font-family="Times New Roman,serif" font-size="14.00">summary_1_2</text>
</g>
<!-- data_chunk_1&#45;&gt;summary_1_2 -->
<g id="edge6" class="edge"><title>data_chunk_1&#45;&gt;summary_1_2</title>
<path fill="none" stroke="black" d="M1166.03,-149.414C1156.32,-147.271 1146.06,-145.302 1136.39,-144 757.699,-93.0075 655.934,-160.138 277.394,-108 271.607,-107.203 265.604,-106.152 259.643,-104.964"/>
<polygon fill="black" stroke="black" points="260.207,-101.506 249.699,-102.853 258.754,-108.353 260.207,-101.506"/>
</g>
<!-- summary_1_3 -->
<g id="node8" class="node"><title>summary_1_3</title>
<ellipse fill="none" stroke="black" cx="634.394" cy="-90" rx="62.2891" ry="18"/>
<text text-anchor="middle" x="634.394" y="-86.3" font-family="Times New Roman,serif" font-size="14.00">summary_1_3</text>
</g>
<!-- data_chunk_1&#45;&gt;summary_1_3 -->
<g id="edge7" class="edge"><title>data_chunk_1&#45;&gt;summary_1_3</title>
<path fill="none" stroke="black" d="M1165.2,-149.544C1155.73,-147.447 1145.77,-145.462 1136.39,-144 946.904,-114.456 895.795,-138.118 706.394,-108 700.706,-107.095 694.802,-105.986 688.931,-104.772"/>
<polygon fill="black" stroke="black" points="689.642,-101.345 679.127,-102.646 688.158,-108.186 689.642,-101.345"/>
</g>
<!-- summary_1_m -->
<g id="node9" class="node"><title>summary_1_m</title>
<ellipse fill="none" stroke="black" cx="1213.39" cy="-90" rx="64.9885" ry="18"/>
<text text-anchor="middle" x="1213.39" y="-86.3" font-family="Times New Roman,serif" font-size="14.00">summary_1_m</text>
</g>
<!-- data_chunk_1&#45;&gt;summary_1_m -->
<g id="edge8" class="edge"><title>data_chunk_1&#45;&gt;summary_1_m</title>
<path fill="none" stroke="black" d="M1211.14,-143.697C1211.47,-135.983 1211.86,-126.712 1212.23,-118.112"/>
<polygon fill="black" stroke="black" points="1215.73,-118.245 1212.66,-108.104 1208.74,-117.945 1215.73,-118.245"/>
</g>
<!-- summary_2_1 -->
<g id="node10" class="node"><title>summary_2_1</title>
<ellipse fill="none" stroke="black" cx="1935.39" cy="-90" rx="62.2891" ry="18"/>
<text text-anchor="middle" x="1935.39" y="-86.3" font-family="Times New Roman,serif" font-size="14.00">summary_2_1</text>
</g>
<!-- data_chunk_2&#45;&gt;summary_2_1 -->
<g id="edge9" class="edge"><title>data_chunk_2&#45;&gt;summary_2_1</title>
<path fill="none" stroke="black" d="M1398.76,-150.417C1410.67,-148.031 1423.46,-145.703 1435.39,-144 1624.37,-117.022 1674.88,-138.015 1863.39,-108 1869.08,-107.094 1874.99,-105.984 1880.86,-104.769"/>
<polygon fill="black" stroke="black" points="1881.63,-108.183 1890.66,-102.643 1880.15,-101.342 1881.63,-108.183"/>
</g>
<!-- summary_2_2 -->
<g id="node11" class="node"><title>summary_2_2</title>
<ellipse fill="none" stroke="black" cx="348.394" cy="-90" rx="62.2891" ry="18"/>
<text text-anchor="middle" x="348.394" y="-86.3" font-family="Times New Roman,serif" font-size="14.00">summary_2_2</text>
</g>
<!-- data_chunk_2&#45;&gt;summary_2_2 -->
<g id="edge10" class="edge"><title>data_chunk_2&#45;&gt;summary_2_2</title>
<path fill="none" stroke="black" d="M1307.96,-149.053C1299.22,-147.046 1290.06,-145.222 1281.39,-144 902.142,-90.5487 799.816,-160.241 420.394,-108 414.607,-107.203 408.604,-106.153 402.643,-104.964"/>
<polygon fill="black" stroke="black" points="403.207,-101.506 392.699,-102.854 401.754,-108.354 403.207,-101.506"/>
</g>
<!-- summary_2_3 -->
<g id="node12" class="node"><title>summary_2_3</title>
<ellipse fill="none" stroke="black" cx="777.394" cy="-90" rx="62.2891" ry="18"/>
<text text-anchor="middle" x="777.394" y="-86.3" font-family="Times New Roman,serif" font-size="14.00">summary_2_3</text>
</g>
<!-- data_chunk_2&#45;&gt;summary_2_3 -->
<g id="edge11" class="edge"><title>data_chunk_2&#45;&gt;summary_2_3</title>
<path fill="none" stroke="black" d="M1307.54,-149.249C1298.92,-147.252 1289.91,-145.381 1281.39,-144 1091.21,-113.173 1039.68,-138.22 849.394,-108 843.706,-107.097 837.801,-105.988 831.931,-104.774"/>
<polygon fill="black" stroke="black" points="832.641,-101.347 822.127,-102.649 831.158,-108.188 832.641,-101.347"/>
</g>
<!-- summary_2_m -->
<g id="node13" class="node"><title>summary_2_m</title>
<ellipse fill="none" stroke="black" cx="1361.39" cy="-90" rx="64.9885" ry="18"/>
<text text-anchor="middle" x="1361.39" y="-86.3" font-family="Times New Roman,serif" font-size="14.00">summary_2_m</text>
</g>
<!-- data_chunk_2&#45;&gt;summary_2_m -->
<g id="edge12" class="edge"><title>data_chunk_2&#45;&gt;summary_2_m</title>
<path fill="none" stroke="black" d="M1353.87,-143.697C1354.97,-135.983 1356.29,-126.712 1357.52,-118.112"/>
<polygon fill="black" stroke="black" points="1361,-118.499 1358.95,-108.104 1354.07,-117.509 1361,-118.499"/>
</g>
<!-- summary_3_1 -->
<g id="node14" class="node"><title>summary_3_1</title>
<ellipse fill="none" stroke="black" cx="2225.39" cy="-90" rx="62.2891" ry="18"/>
<text text-anchor="middle" x="2225.39" y="-86.3" font-family="Times New Roman,serif" font-size="14.00">summary_3_1</text>
</g>
<!-- data_chunk_3&#45;&gt;summary_3_1 -->
<g id="edge13" class="edge"><title>data_chunk_3&#45;&gt;summary_3_1</title>
<path fill="none" stroke="black" d="M1567.52,-159.125C1682.89,-154.896 1940.38,-142.166 2154.39,-108 2159.79,-107.138 2165.39,-106.084 2170.96,-104.928"/>
<polygon fill="black" stroke="black" points="2171.89,-108.307 2180.91,-102.754 2170.4,-101.468 2171.89,-108.307"/>
</g>
<!-- summary_3_2 -->
<g id="node15" class="node"><title>summary_3_2</title>
<ellipse fill="none" stroke="black" cx="920.394" cy="-90" rx="62.2891" ry="18"/>
<text text-anchor="middle" x="920.394" y="-86.3" font-family="Times New Roman,serif" font-size="14.00">summary_3_2</text>
</g>
<!-- data_chunk_3&#45;&gt;summary_3_2 -->
<g id="edge14" class="edge"><title>data_chunk_3&#45;&gt;summary_3_2</title>
<path fill="none" stroke="black" d="M1459.03,-150.412C1447.12,-148.026 1434.33,-145.7 1422.39,-144 1232.09,-116.89 1181.19,-138.468 991.394,-108 985.998,-107.134 980.404,-106.077 974.834,-104.918"/>
<polygon fill="black" stroke="black" points="975.395,-101.458 964.878,-102.742 973.9,-108.297 975.395,-101.458"/>
</g>
<!-- summary_3_3 -->
<g id="node16" class="node"><title>summary_3_3</title>
<ellipse fill="none" stroke="black" cx="1506.39" cy="-90" rx="62.2891" ry="18"/>
<text text-anchor="middle" x="1506.39" y="-86.3" font-family="Times New Roman,serif" font-size="14.00">summary_3_3</text>
</g>
<!-- data_chunk_3&#45;&gt;summary_3_3 -->
<g id="edge15" class="edge"><title>data_chunk_3&#45;&gt;summary_3_3</title>
<path fill="none" stroke="black" d="M1506.39,-143.697C1506.39,-135.983 1506.39,-126.712 1506.39,-118.112"/>
<polygon fill="black" stroke="black" points="1509.89,-118.104 1506.39,-108.104 1502.89,-118.104 1509.89,-118.104"/>
</g>
<!-- summary_3_m -->
<g id="node17" class="node"><title>summary_3_m</title>
<ellipse fill="none" stroke="black" cx="2080.39" cy="-90" rx="64.9885" ry="18"/>
<text text-anchor="middle" x="2080.39" y="-86.3" font-family="Times New Roman,serif" font-size="14.00">summary_3_m</text>
</g>
<!-- data_chunk_3&#45;&gt;summary_3_m -->
<g id="edge16" class="edge"><title>data_chunk_3&#45;&gt;summary_3_m</title>
<path fill="none" stroke="black" d="M1565.97,-157.013C1660.01,-150.197 1848.41,-134.422 2006.39,-108 2012.06,-107.053 2017.94,-105.936 2023.79,-104.734"/>
<polygon fill="black" stroke="black" points="2024.54,-108.154 2033.59,-102.647 2023.08,-101.308 2024.54,-108.154"/>
</g>
<!-- summary_n_1 -->
<g id="node18" class="node"><title>summary_n_1</title>
<ellipse fill="none" stroke="black" cx="1649.39" cy="-90" rx="62.2891" ry="18"/>
<text text-anchor="middle" x="1649.39" y="-86.3" font-family="Times New Roman,serif" font-size="14.00">summary_n_1</text>
</g>
<!-- data_chunk_n&#45;&gt;summary_n_1 -->
<g id="edge17" class="edge"><title>data_chunk_n&#45;&gt;summary_n_1</title>
<path fill="none" stroke="black" d="M1110.59,-149.533C1120.06,-147.436 1130.02,-145.455 1139.39,-144 1332.41,-114.056 1384.47,-138.528 1577.39,-108 1583.08,-107.1 1588.99,-105.993 1594.86,-104.781"/>
<polygon fill="black" stroke="black" points="1595.63,-108.195 1604.66,-102.657 1594.15,-101.353 1595.63,-108.195"/>
</g>
<!-- summary_n_2 -->
<g id="node19" class="node"><title>summary_n_2</title>
<ellipse fill="none" stroke="black" cx="62.3945" cy="-90" rx="62.2891" ry="18"/>
<text text-anchor="middle" x="62.3945" y="-86.3" font-family="Times New Roman,serif" font-size="14.00">summary_n_2</text>
</g>
<!-- data_chunk_n&#45;&gt;summary_n_2 -->
<g id="edge18" class="edge"><title>data_chunk_n&#45;&gt;summary_n_2</title>
<path fill="none" stroke="black" d="M1003.47,-161.204C853.498,-160.889 459.219,-155.222 134.394,-108 128.613,-107.16 122.614,-106.081 116.656,-104.876"/>
<polygon fill="black" stroke="black" points="117.225,-101.418 106.714,-102.747 115.759,-108.263 117.225,-101.418"/>
</g>
<!-- summary_n_3 -->
<g id="node20" class="node"><title>summary_n_3</title>
<ellipse fill="none" stroke="black" cx="491.394" cy="-90" rx="62.2891" ry="18"/>
<text text-anchor="middle" x="491.394" y="-86.3" font-family="Times New Roman,serif" font-size="14.00">summary_n_3</text>
</g>
<!-- data_chunk_n&#45;&gt;summary_n_3 -->
<g id="edge19" class="edge"><title>data_chunk_n&#45;&gt;summary_n_3</title>
<path fill="none" stroke="black" d="M1005.56,-157.145C911.117,-150.509 721.93,-134.973 563.394,-108 557.934,-107.071 552.27,-105.973 546.626,-104.788"/>
<polygon fill="black" stroke="black" points="547.054,-101.299 536.537,-102.581 545.558,-108.137 547.054,-101.299"/>
</g>
<!-- summary_n_m -->
<g id="node21" class="node"><title>summary_n_m</title>
<ellipse fill="none" stroke="black" cx="1065.39" cy="-90" rx="64.9885" ry="18"/>
<text text-anchor="middle" x="1065.39" y="-86.3" font-family="Times New Roman,serif" font-size="14.00">summary_n_m</text>
</g>
<!-- data_chunk_n&#45;&gt;summary_n_m -->
<g id="edge20" class="edge"><title>data_chunk_n&#45;&gt;summary_n_m</title>
<path fill="none" stroke="black" d="M1065.39,-143.697C1065.39,-135.983 1065.39,-126.712 1065.39,-118.112"/>
<polygon fill="black" stroke="black" points="1068.89,-118.104 1065.39,-108.104 1061.89,-118.104 1068.89,-118.104"/>
</g>
<!-- interpretation_1 -->
<g id="node22" class="node"><title>interpretation_1</title>
<ellipse fill="none" stroke="black" cx="1863.39" cy="-18" rx="67.6881" ry="18"/>
<text text-anchor="middle" x="1863.39" y="-14.3" font-family="Times New Roman,serif" font-size="14.00">interpretation_1</text>
</g>
<!-- summary_1_1&#45;&gt;interpretation_1 -->
<g id="edge21" class="edge"><title>summary_1_1&#45;&gt;interpretation_1</title>
<path fill="none" stroke="black" d="M1809.22,-72.411C1818.24,-63.519 1829.51,-52.4107 1839.43,-42.6309"/>
<polygon fill="black" stroke="black" points="1842.03,-44.9831 1846.69,-35.4699 1837.11,-39.9983 1842.03,-44.9831"/>
</g>
<!-- interpretation_2 -->
<g id="node23" class="node"><title>interpretation_2</title>
<ellipse fill="none" stroke="black" cx="276.394" cy="-18" rx="67.6881" ry="18"/>
<text text-anchor="middle" x="276.394" y="-14.3" font-family="Times New Roman,serif" font-size="14.00">interpretation_2</text>
</g>
<!-- summary_1_2&#45;&gt;interpretation_2 -->
<g id="edge25" class="edge"><title>summary_1_2&#45;&gt;interpretation_2</title>
<path fill="none" stroke="black" d="M222.22,-72.411C231.239,-63.519 242.507,-52.4107 252.426,-42.6309"/>
<polygon fill="black" stroke="black" points="255.025,-44.9831 259.689,-35.4699 250.111,-39.9983 255.025,-44.9831"/>
</g>
<!-- interpretation_3 -->
<g id="node24" class="node"><title>interpretation_3</title>
<ellipse fill="none" stroke="black" cx="705.394" cy="-18" rx="67.6881" ry="18"/>
<text text-anchor="middle" x="705.394" y="-14.3" font-family="Times New Roman,serif" font-size="14.00">interpretation_3</text>
</g>
<!-- summary_1_3&#45;&gt;interpretation_3 -->
<g id="edge29" class="edge"><title>summary_1_3&#45;&gt;interpretation_3</title>
<path fill="none" stroke="black" d="M651.22,-72.411C660.239,-63.519 671.507,-52.4107 681.426,-42.6309"/>
<polygon fill="black" stroke="black" points="684.025,-44.9831 688.689,-35.4699 679.111,-39.9983 684.025,-44.9831"/>
</g>
<!-- interpretation_m -->
<g id="node25" class="node"><title>interpretation_m</title>
<ellipse fill="none" stroke="black" cx="1287.39" cy="-18" rx="69.5877" ry="18"/>
<text text-anchor="middle" x="1287.39" y="-14.3" font-family="Times New Roman,serif" font-size="14.00">interpretation_m</text>
</g>
<!-- summary_1_m&#45;&gt;interpretation_m -->
<g id="edge33" class="edge"><title>summary_1_m&#45;&gt;interpretation_m</title>
<path fill="none" stroke="black" d="M1230.93,-72.411C1240.42,-63.4318 1252.31,-52.1926 1262.72,-42.3436"/>
<polygon fill="black" stroke="black" points="1265.12,-44.8846 1269.98,-35.4699 1260.31,-39.7993 1265.12,-44.8846"/>
</g>
<!-- summary_2_1&#45;&gt;interpretation_1 -->
<g id="edge22" class="edge"><title>summary_2_1&#45;&gt;interpretation_1</title>
<path fill="none" stroke="black" d="M1918.33,-72.411C1909.19,-63.519 1897.76,-52.4107 1887.7,-42.6309"/>
<polygon fill="black" stroke="black" points="1889.94,-39.9313 1880.33,-35.4699 1885.07,-44.9503 1889.94,-39.9313"/>
</g>
<!-- summary_2_2&#45;&gt;interpretation_2 -->
<g id="edge26" class="edge"><title>summary_2_2&#45;&gt;interpretation_2</title>
<path fill="none" stroke="black" d="M331.331,-72.411C322.185,-63.519 310.76,-52.4107 300.701,-42.6309"/>
<polygon fill="black" stroke="black" points="302.945,-39.9313 293.335,-35.4699 298.065,-44.9503 302.945,-39.9313"/>
</g>
<!-- summary_2_3&#45;&gt;interpretation_3 -->
<g id="edge30" class="edge"><title>summary_2_3&#45;&gt;interpretation_3</title>
<path fill="none" stroke="black" d="M760.331,-72.411C751.185,-63.519 739.76,-52.4107 729.701,-42.6309"/>
<polygon fill="black" stroke="black" points="731.945,-39.9313 722.335,-35.4699 727.065,-44.9503 731.945,-39.9313"/>
</g>
<!-- summary_2_m&#45;&gt;interpretation_m -->
<g id="edge34" class="edge"><title>summary_2_m&#45;&gt;interpretation_m</title>
<path fill="none" stroke="black" d="M1343.86,-72.411C1334.37,-63.4318 1322.48,-52.1926 1312.07,-42.3436"/>
<polygon fill="black" stroke="black" points="1314.48,-39.7993 1304.81,-35.4699 1309.67,-44.8846 1314.48,-39.7993"/>
</g>
<!-- summary_3_1&#45;&gt;interpretation_1 -->
<g id="edge23" class="edge"><title>summary_3_1&#45;&gt;interpretation_1</title>
<path fill="none" stroke="black" d="M2179.65,-77.6563C2171.26,-75.6891 2162.58,-73.7241 2154.39,-72 2077.32,-55.7674 1988.15,-39.961 1929.04,-29.8969"/>
<polygon fill="black" stroke="black" points="1929.53,-26.4311 1919.09,-28.2089 1928.36,-33.3324 1929.53,-26.4311"/>
</g>
<!-- summary_3_2&#45;&gt;interpretation_2 -->
<g id="edge27" class="edge"><title>summary_3_2&#45;&gt;interpretation_2</title>
<path fill="none" stroke="black" d="M875.652,-77.4164C866.671,-75.3799 857.267,-73.4513 848.394,-72 672.063,-43.1583 462.391,-28.7278 352.405,-22.6632"/>
<polygon fill="black" stroke="black" points="352.575,-19.1674 342.399,-22.1195 352.195,-26.1571 352.575,-19.1674"/>
</g>
<!-- summary_3_3&#45;&gt;interpretation_3 -->
<g id="edge31" class="edge"><title>summary_3_3&#45;&gt;interpretation_3</title>
<path fill="none" stroke="black" d="M1461.92,-77.1831C1453.18,-75.1916 1444.04,-73.3393 1435.39,-72 1199.35,-35.4208 916.354,-23.9845 782.629,-20.4895"/>
<polygon fill="black" stroke="black" points="782.57,-16.987 772.485,-20.2322 782.393,-23.9847 782.57,-16.987"/>
</g>
<!-- summary_3_m&#45;&gt;interpretation_m -->
<g id="edge35" class="edge"><title>summary_3_m&#45;&gt;interpretation_m</title>
<path fill="none" stroke="black" d="M2034.02,-77.2106C2024.91,-75.2167 2015.39,-73.3565 2006.39,-72 1775.55,-37.1834 1499.42,-24.9663 1366.53,-20.8992"/>
<polygon fill="black" stroke="black" points="1366.54,-17.398 1356.44,-20.5977 1366.33,-24.3949 1366.54,-17.398"/>
</g>
<!-- summary_n_1&#45;&gt;interpretation_1 -->
<g id="edge24" class="edge"><title>summary_n_1&#45;&gt;interpretation_1</title>
<path fill="none" stroke="black" d="M1689.14,-75.9976C1723.99,-64.6011 1774.82,-47.9717 1812.61,-35.6133"/>
<polygon fill="black" stroke="black" points="1813.98,-38.8449 1822.4,-32.4094 1811.81,-32.1918 1813.98,-38.8449"/>
</g>
<!-- summary_n_2&#45;&gt;interpretation_2 -->
<g id="edge28" class="edge"><title>summary_n_2&#45;&gt;interpretation_2</title>
<path fill="none" stroke="black" d="M102.145,-75.9976C136.986,-64.6011 187.824,-47.9717 225.605,-35.6133"/>
<polygon fill="black" stroke="black" points="226.984,-38.8449 235.4,-32.4094 224.808,-32.1918 226.984,-38.8449"/>
</g>
<!-- summary_n_3&#45;&gt;interpretation_3 -->
<g id="edge32" class="edge"><title>summary_n_3&#45;&gt;interpretation_3</title>
<path fill="none" stroke="black" d="M531.145,-75.9976C565.986,-64.6011 616.824,-47.9717 654.605,-35.6133"/>
<polygon fill="black" stroke="black" points="655.984,-38.8449 664.4,-32.4094 653.808,-32.1918 655.984,-38.8449"/>
</g>
<!-- summary_n_m&#45;&gt;interpretation_m -->
<g id="edge36" class="edge"><title>summary_n_m&#45;&gt;interpretation_m</title>
<path fill="none" stroke="black" d="M1106.63,-75.9976C1142.93,-64.5526 1195.96,-47.83 1235.21,-35.4558"/>
<polygon fill="black" stroke="black" points="1236.38,-38.7546 1244.87,-32.4094 1234.28,-32.0786 1236.38,-38.7546"/>
</g>
</g>
</svg>
